<svg xmlns="http://www.w3.org/2000/svg" width="20" height="19.231" viewBox="0 0 20 19.231">
  <g id="filter" transform="translate(-69.5 139)">
    <path id="Path_2" data-name="Path 2" d="M16.422,0H3.578A3.515,3.515,0,0,0,0,3.44V15.79a3.515,3.515,0,0,0,3.578,3.44H16.422A3.515,3.515,0,0,0,20,15.79V3.44A3.515,3.515,0,0,0,16.422,0Zm2.406,15.79A2.364,2.364,0,0,1,16.422,18.1H3.578A2.364,2.364,0,0,1,1.172,15.79V3.44A2.364,2.364,0,0,1,3.578,1.127H16.422A2.364,2.364,0,0,1,18.828,3.44Z" transform="translate(69.5 -139)" fill="#dfe1ec"/>
    <path id="Path_3" data-name="Path 3" d="M73.876,81.359H67.918a1.174,1.174,0,0,0-2.33,0h-.93a.488.488,0,0,0,0,.957h.93a1.174,1.174,0,0,0,2.33,0h5.958a.488.488,0,0,0,0-.957Zm-7.123,1.025a.558.558,0,1,1,.447-.547A.5.5,0,0,1,66.753,82.384Z" transform="translate(10.233 -214.731)" fill="#dfe1ec"/>
    <path id="Path_4" data-name="Path 4" d="M73.876,209.892h-.93a1.174,1.174,0,0,0-2.33,0H64.658a.488.488,0,0,0,0,.957h5.958a1.174,1.174,0,0,0,2.33,0h.93a.488.488,0,0,0,0-.957Zm-2.095,1.025a.558.558,0,1,1,.447-.547A.5.5,0,0,1,71.781,210.917Z" transform="translate(10.233 -339.287)" fill="#dfe1ec"/>
    <path id="Path_5" data-name="Path 5" d="M73.876,338.425H69.594a1.174,1.174,0,0,0-2.33,0H64.658a.488.488,0,0,0,0,.957h2.606a1.174,1.174,0,0,0,2.33,0h4.282a.488.488,0,0,0,0-.957Zm-5.447,1.025a.558.558,0,1,1,.447-.547A.5.5,0,0,1,68.429,339.45Z" transform="translate(10 -463.884)" fill="#dfe1ec"/>
  </g>
</svg>
